<?xml version="1.0" encoding="UTF-8"?>
<svg version="1.1" xmlns="http://www.w3.org/2000/svg" width="500" height="500">
<path d="M0 0 C165 0 330 0 500 0 C500 165 500 330 500 500 C335 500 170 500 0 500 C0 335 0 170 0 0 Z " fill="#FEFEFE" transform="translate(0,0)"/>
<path d="M0 0 C9.59431064 8.77384581 17.38918969 18.50441465 24.13574219 29.60839844 C26.36866309 32.65059427 28.23487921 33.96467582 31.50683594 35.78808594 C42.03915567 42.21672258 47.16829016 51.22206299 51.39355469 62.65917969 C52.23635234 66.61005065 52.13757537 69.79269215 51.86035156 73.78540039 C51.13503379 81.86552268 51.13503379 81.86552268 54.13183594 89.02636719 C56.7406809 90.75631773 59.36301663 92.08451264 62.19433594 93.41308594 C71.08174359 99.85369397 78.77660148 109.55474008 81.19433594 120.41308594 C82.42815253 131.12326191 82.0255213 141.27268622 75.14746094 150.01464844 C73.22336928 152.21848392 71.25754087 154.33986545 69.19433594 156.41308594 C68.53433594 156.08308594 67.87433594 155.75308594 67.19433594 155.41308594 C67.72542969 154.89101563 68.25652344 154.36894531 68.80371094 153.83105469 C75.75526004 146.58774349 79.27154251 139.5962035 79.69433594 129.47558594 C79.18345287 117.4775745 74.30417274 108.13385579 66.19433594 99.41308594 C59.03236395 92.83658272 59.03236395 92.83658272 50.19433594 89.41308594 C49.73994141 90.35667969 49.73994141 90.35667969 49.27636719 91.31933594 C42.28628512 105.6006113 42.28628512 105.6006113 38.20605469 109.13574219 C35.4803213 112.22137823 34.67406949 115.60070598 33.56933594 119.47558594 C31.41948202 126.4231806 28.73902536 132.80696108 25.31933594 139.22558594 C24.73998291 140.31528687 24.73998291 140.31528687 24.14892578 141.42700195 C21.70278645 145.9095947 19.06810793 150.25364546 16.37011719 154.58886719 C12.4457603 160.92193867 8.82440934 167.38722331 5.26739502 173.9319458 C3.53473107 177.11440901 1.78416591 180.28699941 0.03417969 183.45996094 C-0.4734491 184.38036667 -0.4734491 184.38036667 -0.99133301 185.31936646 C-6.73201905 195.7210439 -12.23890738 205.46001381 -20.54394531 214.04589844 C-22.83281821 216.35667259 -22.83281821 216.35667259 -24.70800781 218.88964844 C-35.40478042 231.75764677 -52.06998661 239.86328807 -67.44238281 245.51074219 C-68.47516861 245.89397141 -69.50795441 246.27720062 -70.57203674 246.67204285 C-83.41142358 251.4125758 -96.31998154 255.96156295 -109.22686005 260.5141983 C-115.39114316 262.68906615 -121.55376528 264.86863312 -127.71582031 267.04980469 C-128.71476318 267.40328979 -128.71476318 267.40328979 -129.73388672 267.76391602 C-137.71063834 270.58785599 -145.67609716 273.43920809 -153.61425781 276.37011719 C-154.37961349 276.65214493 -155.14496918 276.93417267 -155.93351746 277.2247467 C-159.23210001 278.44211587 -162.52634386 279.6687927 -165.81518555 280.91235352 C-197.61196312 292.72075265 -229.5619202 292.48158865 -260.56347656 278.78417969 C-268.74765172 274.90793849 -275.822433 270.1593988 -282.80566406 264.41308594 C-283.65773438 263.71441406 -284.50980469 263.01574219 -285.38769531 262.29589844 C-293.12623454 255.64197337 -299.73985172 247.8655048 -305.83300781 239.69433594 C-307.91931826 237.28165217 -309.68292813 236.12929599 -312.49316406 234.66308594 C-323.67888493 228.17240254 -329.83203343 219.19091658 -333.94238281 207.05761719 C-336.45319971 196.45765263 -335.87563245 184.15989682 -330.80566406 174.41308594 C-329.81806909 173.180965 -328.82102088 171.95639307 -327.81738281 170.73730469 C-324.22314359 166.0765403 -323.28371241 161.49203422 -322.24316406 155.78808594 C-321.83498218 153.81940958 -321.42092123 151.85194298 -321.00097656 149.88574219 C-320.80020508 148.94102051 -320.59943359 147.99629883 -320.39257812 147.02294922 C-318.01339436 136.44330096 -313.28105265 127.08541061 -308.10766602 117.63110352 C-307.68187256 116.85275146 -307.2560791 116.07439941 -306.81738281 115.27246094 C-306.43026123 114.57604492 -306.04313965 113.87962891 -305.64428711 113.16210938 C-304.66154723 111.43579795 -304.66154723 111.43579795 -304.80566406 109.41308594 C-305.4472642 107.94675538 -306.141589 106.50333185 -306.86035156 105.07324219 C-307.30491699 104.18531982 -307.74948242 103.29739746 -308.20751953 102.38256836 C-308.69365723 101.42326416 -309.17979492 100.46395996 -309.68066406 99.47558594 C-310.18098145 98.48212158 -310.68129883 97.48865723 -311.19677734 96.46508789 C-315.08621337 88.76911351 -319.07444116 81.12856822 -323.11425781 73.51074219 C-326.9375844 66.29277823 -330.6803531 59.03250328 -334.42822266 51.77514648 C-334.95367676 50.76105713 -335.47913086 49.74696777 -336.02050781 48.70214844 C-336.48577881 47.80189941 -336.9510498 46.90165039 -337.43041992 45.97412109 C-338.39011611 44.18693611 -339.41236533 42.43256043 -340.47973633 40.70751953 C-341.80566406 38.41308594 -341.80566406 38.41308594 -341.80566406 36.41308594 C-342.87494141 36.5175 -342.87494141 36.5175 -343.96582031 36.62402344 C-349.03554645 36.91060284 -352.80032347 37.09751557 -356.86816406 33.78808594 C-360.1832611 30.3855403 -361.77075391 27.31062883 -361.82910156 22.46777344 C-361.47232114 17.52918132 -360.03432423 14.26954114 -356.80566406 10.41308594 C-353.41146803 7.58458925 -350.37163804 6.81848754 -345.93066406 6.99511719 C-340.95306437 7.97416713 -337.16688964 10.92424547 -333.80566406 14.60058594 C-332.13059671 19.31171286 -331.55557733 24.65951652 -333.67285156 29.32324219 C-334.74316406 30.91308594 -334.74316406 30.91308594 -336.80566406 33.41308594 C-337.13566406 34.07308594 -337.46566406 34.73308594 -337.80566406 35.41308594 C-336.70868675 37.83207631 -335.55096915 40.12043306 -334.28222656 42.44824219 C-333.90262787 43.15975937 -333.52302917 43.87127655 -333.13192749 44.60435486 C-331.90564037 46.89885731 -330.66842071 49.18725382 -329.43066406 51.47558594 C-328.63434995 52.96021466 -327.83876909 54.44523693 -327.04394531 55.93066406 C-325.44394233 58.91875332 -323.84054825 61.90498436 -322.23461914 64.88989258 C-316.45616851 75.6397509 -310.70443484 86.39355744 -305.38574219 97.37988281 C-304.05587467 100.08604032 -302.9541464 102.2646036 -300.80566406 104.41308594 C-298.82503421 100.76804577 -296.84651332 97.12186431 -294.86816406 93.47558594 C-294.27495361 92.38415283 -293.68174316 91.29271973 -293.07055664 90.16821289 C-290.01713456 84.53948612 -287.00629135 78.89509275 -284.07788086 73.20043945 C-274.4241688 54.51226087 -274.4241688 54.51226087 -265.80566406 49.41308594 C-263.84257252 47.63462818 -261.97147796 45.85915802 -260.11816406 43.97558594 C-259.63283203 43.49798828 -259.1475 43.02039063 -258.64746094 42.52832031 C-256.0921206 39.95888154 -254.4046273 37.62456294 -252.80566406 34.41308594 C-238.48342993 21.53247712 -218.40820247 15.38916249 -200.61816406 9.22558594 C-198.19095797 8.37407949 -195.7642098 7.52126673 -193.33789062 6.66723633 C-189.51347094 5.32202787 -185.68874003 3.97783016 -181.86154175 2.64054871 C-172.86371793 -0.50406403 -163.88215253 -3.69202784 -154.90917015 -6.90681267 C-150.68347293 -8.42039822 -146.45655031 -9.93055959 -142.22981358 -11.44123936 C-138.82359681 -12.65888043 -135.41790039 -13.87793448 -132.01333618 -15.10018921 C-128.2016309 -16.4681788 -124.38659933 -17.82666774 -120.57128906 -19.18457031 C-119.45475449 -19.58682831 -118.33821991 -19.9890863 -117.18785095 -20.40353394 C-77.23034385 -34.57066376 -32.34747312 -28.42868784 0 0 Z " fill="#FEFEFE" transform="translate(391.8056640625,118.5869140625)"/>
<path d="M0 0 C3.99384472 1.73304333 7.06859613 3.98127701 10 7.1875 C11.67506735 11.89862692 12.25008673 17.24643058 10.1328125 21.91015625 C9.0625 23.5 9.0625 23.5 7 26 C6.67 26.66 6.34 27.32 6 28 C7.09697731 30.41899037 8.25469491 32.70734712 9.5234375 35.03515625 C9.90303619 35.74667343 10.28263489 36.45819061 10.67373657 37.19126892 C11.9000237 39.48577137 13.13724335 41.77416788 14.375 44.0625 C15.17131411 45.54712872 15.96689498 47.03215099 16.76171875 48.51757812 C18.36172173 51.50566738 19.96511581 54.49189842 21.57104492 57.47680664 C27.34949555 68.22666497 33.10122923 78.9804715 38.41992188 89.96679688 C39.74978939 92.67295438 40.85151766 94.85151766 43 97 C47.29 89.08 51.58 81.16 56 73 C57.35934465 77.07803394 55.96799784 79.88716693 54.6875 83.8125 C46.08152101 111.86260353 48.71379432 142.05322136 62.10546875 168.19140625 C66.32936228 176.1195983 71.11097272 183.19286156 77 190 C78.1446875 191.5159375 78.1446875 191.5159375 79.3125 193.0625 C83.44390543 197.57822221 88.16907177 201.25865613 93 205 C93.78375 205.61101562 94.5675 206.22203125 95.375 206.8515625 C104.93371209 213.92371773 115.8534153 218.97829238 127 223 C127 223.66 127 224.32 127 225 C127.97839844 225.07347656 127.97839844 225.07347656 128.9765625 225.1484375 C130.28753906 225.26058594 130.28753906 225.26058594 131.625 225.375 C132.48351562 225.44460938 133.34203125 225.51421875 134.2265625 225.5859375 C137 226 137 226 139.75024414 227.00708008 C145.02444834 228.61854342 150.2846207 228.33331999 155.76342773 228.31567383 C157.76877279 228.31256773 159.77410132 228.33664576 161.77929688 228.36132812 C179.02815267 228.36977103 194.11846274 224.34484431 210.25 218.5 C212.09400014 217.84303055 213.93841359 217.18722024 215.78320312 216.5324707 C219.74578844 215.12300994 223.70509607 213.70481298 227.66210938 212.27978516 C234.31624739 209.8836564 240.97831805 207.51001909 247.640625 205.13671875 C257.83227268 201.50329953 268.01569653 197.84758525 278.19287109 194.17382812 C283.38949182 192.29838681 288.58880996 190.43149232 293.79600525 188.58561707 C310.93213831 182.50504516 327.27978701 176.27473287 341 164 C342.25876953 162.93652344 342.25876953 162.93652344 343.54296875 161.8515625 C349.45045792 156.75735853 354.33380078 151.24332242 359 145 C359.33 145.66 359.66 146.32 360 147 C358.74618627 149.55464547 357.42537589 151.97917681 356 154.4375 C355.07328167 156.06326829 354.14756582 157.68960827 353.22265625 159.31640625 C352.70977051 160.21504395 352.19688477 161.11368164 351.66845703 162.03955078 C349.84884669 165.26820091 348.07578869 168.51972139 346.30859375 171.77734375 C345.33837824 173.55680713 344.36723657 175.33576167 343.39575195 177.11453247 C342.46461279 178.82518931 341.54174864 180.54034225 340.61914062 182.25561523 C325.96809793 208.95188546 304.84679985 227.63348643 276.36328125 238.09765625 C275.33049545 238.48088547 274.29770966 238.86411469 273.23362732 239.25895691 C260.39424048 243.99948986 247.48568253 248.54847701 234.57880402 253.10111237 C228.41452091 255.27598021 222.25189878 257.45554718 216.08984375 259.63671875 C215.09090088 259.99020386 215.09090088 259.99020386 214.07177734 260.35083008 C206.09502572 263.17477006 198.1295669 266.02612215 190.19140625 268.95703125 C189.42605057 269.23905899 188.66069489 269.52108673 187.87214661 269.81166077 C184.57356405 271.02902993 181.27932021 272.25570676 177.99047852 273.49926758 C146.19370094 285.30766671 114.24374387 285.06850271 83.2421875 271.37109375 C75.05801234 267.49485255 67.98323106 262.74631287 61 257 C60.14792969 256.30132812 59.29585938 255.60265625 58.41796875 254.8828125 C50.67942953 248.22888744 44.06581234 240.45241886 37.97265625 232.28125 C35.8863458 229.86856624 34.12273593 228.71621005 31.3125 227.25 C20.12677913 220.75931661 13.97363064 211.77783064 9.86328125 199.64453125 C7.35246435 189.04456669 7.93003161 176.74681089 13 167 C13.98759498 165.76787906 14.98464318 164.54330713 15.98828125 163.32421875 C19.58252047 158.66345436 20.52195165 154.07894828 21.5625 148.375 C21.97068188 146.40632364 22.38474283 144.43885704 22.8046875 142.47265625 C23.00545898 141.52793457 23.20623047 140.58321289 23.41308594 139.60986328 C25.7922697 129.03021502 30.52461141 119.67232468 35.69799805 110.21801758 C36.1237915 109.43966553 36.54958496 108.66131348 36.98828125 107.859375 C37.37540283 107.16295898 37.76252441 106.46654297 38.16137695 105.74902344 C39.14411683 104.02271202 39.14411683 104.02271202 39 102 C38.35839986 100.53366944 37.66407507 99.09024591 36.9453125 97.66015625 C36.50074707 96.77223389 36.05618164 95.88431152 35.59814453 94.96948242 C35.11200684 94.01017822 34.62586914 93.05087402 34.125 92.0625 C33.62468262 91.06903564 33.12436523 90.07557129 32.60888672 89.05200195 C28.71945069 81.35602757 24.7312229 73.71548229 20.69140625 66.09765625 C16.86807966 58.87969229 13.12531096 51.61941734 9.37744141 44.36206055 C8.8519873 43.34797119 8.3265332 42.33388184 7.78515625 41.2890625 C7.31988525 40.38881348 6.85461426 39.48856445 6.37524414 38.56103516 C5.41554795 36.77385017 4.39329874 35.01947449 3.32592773 33.29443359 C2 31 2 31 2 29 C1.28714844 29.06960937 0.57429688 29.13921875 -0.16015625 29.2109375 C-5.22988238 29.4975169 -8.99465941 29.68442963 -13.0625 26.375 C-16.37759703 22.97245436 -17.96508984 19.89754289 -18.0234375 15.0546875 C-17.66665708 10.11609538 -16.22866017 6.8564552 -13 3 C-9.06108306 -0.28243079 -4.97997279 -0.97951671 0 0 Z " fill="#04BE64" transform="translate(48,126)"/>
<path d="M0 0 C9.59431064 8.77384581 17.38918969 18.50441465 24.13574219 29.60839844 C26.36866309 32.65059427 28.23487921 33.96467582 31.50683594 35.78808594 C42.03915567 42.21672258 47.16829016 51.22206299 51.39355469 62.65917969 C52.23635234 66.61005065 52.13757537 69.79269215 51.86035156 73.78540039 C51.13503379 81.86552268 51.13503379 81.86552268 54.13183594 89.02636719 C56.7406809 90.75631773 59.36301663 92.08451264 62.19433594 93.41308594 C71.08174359 99.85369397 78.77660148 109.55474008 81.19433594 120.41308594 C82.42815253 131.12326191 82.0255213 141.27268622 75.14746094 150.01464844 C73.22336928 152.21848392 71.25754087 154.33986545 69.19433594 156.41308594 C68.53433594 156.08308594 67.87433594 155.75308594 67.19433594 155.41308594 C67.72542969 154.89101563 68.25652344 154.36894531 68.80371094 153.83105469 C75.75526004 146.58774349 79.27154251 139.5962035 79.69433594 129.47558594 C79.18345287 117.4775745 74.30417274 108.13385579 66.19433594 99.41308594 C59.03236395 92.83658272 59.03236395 92.83658272 50.19433594 89.41308594 C49.73994141 90.35667969 49.73994141 90.35667969 49.27636719 91.31933594 C42.28628512 105.6006113 42.28628512 105.6006113 38.20605469 109.13574219 C35.48041283 112.22127463 34.67377957 115.60067353 33.56933594 119.47558594 C31.37256598 126.5859714 28.59568487 133.13887876 25.13183594 139.72558594 C24.72046387 140.51908447 24.3090918 141.31258301 23.88525391 142.13012695 C21.46653415 146.61068248 18.94776804 149.9102712 15.19433594 153.41308594 C13.90583179 154.94108164 12.61785626 156.46972827 11.35327148 158.01757812 C-7.73319003 181.34355286 -32.56390245 190.88293243 -60.24316406 200.60058594 C-62.69711221 201.46770746 -65.1508023 202.33555956 -67.60424805 203.20410156 C-71.42545494 204.55679018 -75.24683827 205.9089606 -79.06941223 207.25778198 C-87.55039298 210.25161442 -96.0187789 213.27891623 -104.47897911 216.33095741 C-106.39643947 217.02247689 -108.31422163 217.71309564 -110.23213196 218.40336609 C-110.85726275 218.62835816 -111.48239355 218.85335024 -112.1264677 219.08516026 C-113.05737083 219.42017756 -113.05737083 219.42017756 -114.00708008 219.76196289 C-117.65122172 221.07348509 -121.29477372 222.38650462 -124.93624878 223.70541382 C-144.69442456 230.85760131 -162.18701263 236.60085913 -183.32421875 236.59838867 C-185.43281876 236.60058819 -187.54090528 236.61883435 -189.64941406 236.63769531 C-191.00618313 236.64062788 -192.36295465 236.64261359 -193.71972656 236.64355469 C-194.93611816 236.64766357 -196.15250977 236.65177246 -197.40576172 236.65600586 C-200.87146568 236.40838447 -203.56660575 235.62918088 -206.80566406 234.41308594 C-208.59028889 234.00588985 -210.38207884 233.62835882 -212.18066406 233.28808594 C-213.05464844 233.12050781 -213.92863281 232.95292969 -214.82910156 232.78027344 C-215.48136719 232.65910156 -216.13363281 232.53792969 -216.80566406 232.41308594 C-216.80566406 231.75308594 -216.80566406 231.09308594 -216.80566406 230.41308594 C-217.63710937 230.32285156 -218.46855469 230.23261719 -219.32519531 230.13964844 C-223.46411257 229.27563204 -226.75852075 227.7182955 -230.49316406 225.78808594 C-231.19650879 225.42835693 -231.89985352 225.06862793 -232.62451172 224.69799805 C-242.83232667 219.40294172 -251.49245205 213.39194573 -259.80566406 205.41308594 C-260.65128906 204.60871094 -261.49691406 203.80433594 -262.36816406 202.97558594 C-263.17253906 202.12996094 -263.97691406 201.28433594 -264.80566406 200.41308594 C-265.45921875 199.754375 -266.11277344 199.09566406 -266.78613281 198.41699219 C-280.57259382 183.96612342 -288.40685778 165.72130775 -292.80566406 146.41308594 C-293.03253906 145.45273437 -293.25941406 144.49238281 -293.49316406 143.50292969 C-298.73685968 117.61218257 -293.3614786 85.51174227 -278.80566406 63.41308594 C-278.13148438 62.38570313 -277.45730469 61.35832031 -276.76269531 60.29980469 C-273.42007786 55.46461134 -270.8760962 52.3916806 -265.80566406 49.41308594 C-263.84257252 47.63462818 -261.97147796 45.85915802 -260.11816406 43.97558594 C-259.63283203 43.49798828 -259.1475 43.02039063 -258.64746094 42.52832031 C-256.0921206 39.95888154 -254.4046273 37.62456294 -252.80566406 34.41308594 C-238.48342993 21.53247712 -218.40820247 15.38916249 -200.61816406 9.22558594 C-198.19095797 8.37407949 -195.7642098 7.52126673 -193.33789062 6.66723633 C-189.51347094 5.32202787 -185.68874003 3.97783016 -181.86154175 2.64054871 C-172.86371793 -0.50406403 -163.88215253 -3.69202784 -154.90917015 -6.90681267 C-150.68347293 -8.42039822 -146.45655031 -9.93055959 -142.22981358 -11.44123936 C-138.82359681 -12.65888043 -135.41790039 -13.87793448 -132.01333618 -15.10018921 C-128.2016309 -16.4681788 -124.38659933 -17.82666774 -120.57128906 -19.18457031 C-119.45475449 -19.58682831 -118.33821991 -19.9890863 -117.18785095 -20.40353394 C-77.23034385 -34.57066376 -32.34747312 -28.42868784 0 0 Z M-143.25104904 2.93920135 C-146.64199537 4.17138611 -150.03769781 5.39033441 -153.43286133 6.61083984 C-158.25183321 8.34457992 -163.06888904 10.08347861 -167.88380337 11.82845497 C-175.83426549 14.70922625 -183.8004213 17.54332146 -191.77441406 20.35839844 C-194.93851595 21.48125769 -198.10203352 22.6057397 -201.26516724 23.73132324 C-203.21838879 24.42443737 -205.17284147 25.11409396 -207.12863159 25.79992676 C-235.98070244 35.93358912 -261.91919674 51.49788798 -275.71655273 80.10864258 C-287.12131433 105.30535254 -287.24628206 134.62284057 -277.68432617 160.42382812 C-271.58140231 176.02612004 -262.35340999 190.2002066 -249.80566406 201.41308594 C-249.14566406 201.41308594 -248.48566406 201.41308594 -247.80566406 201.41308594 C-247.80566406 202.07308594 -247.80566406 202.73308594 -247.80566406 203.41308594 C-224.22888353 222.26181762 -195.90722228 230.79754487 -165.80566406 227.78808594 C-159.61482869 227.03884473 -153.76937157 225.71687673 -147.81347656 223.88574219 C-146.95924103 223.62587021 -146.10500549 223.36599823 -145.22488403 223.09825134 C-133.91538073 219.59537907 -122.80609047 215.51677922 -111.68066406 211.47558594 C-108.1763162 210.2081301 -104.67144014 208.94214307 -101.16650391 207.67631531 C-98.80917479 206.82483745 -96.45207766 205.97271705 -94.09521484 205.11994934 C-86.61287432 202.41542005 -79.11770077 199.75045168 -71.61035156 197.11621094 C-69.71723647 196.44960115 -67.82416886 195.78285648 -65.93115234 195.1159668 C-63.29264186 194.18653778 -60.65346431 193.25952882 -58.01068115 192.34231567 C-49.36040951 189.33859161 -40.88391045 186.15534524 -32.58300781 182.27636719 C-31.90441711 181.95988724 -31.22582642 181.64340729 -30.52667236 181.31733704 C-9.77088519 171.33849374 9.40820197 152.31158772 17.19433594 130.41308594 C26.39996143 101.17719684 25.33678052 72.8204721 11.32617188 45.20751953 C6.22079481 35.45000265 -0.26867577 27.4109692 -7.80566406 19.41308594 C-8.35738281 18.79691406 -8.90910156 18.18074219 -9.47753906 17.54589844 C-27.24848592 -1.54467319 -55.28465921 -11.04180023 -80.87130737 -12.03199768 C-102.63752639 -12.48790437 -123.09961732 -4.39875176 -143.25104904 2.93920135 Z " fill="#F1F1F1" transform="translate(391.8056640625,118.5869140625)"/>
<path d="M0 0 C16.52157727 9.31216173 24.64927843 25.48154821 29.89038086 42.9375 C33.01151162 54.34682761 32.09612302 66.08458598 27.4375 76.9375 C24.3406071 81.43017562 20.97291123 84.91389251 16.4375 87.9375 C8.16385829 89.11767412 2.14589943 87.80923085 -4.5625 82.9375 C-5.15417969 82.53789062 -5.74585938 82.13828125 -6.35546875 81.7265625 C-19.31985723 71.93652086 -27.10793264 53.49046435 -29.5625 37.9375 C-30.66420367 26.78088094 -30.27993414 15.73671201 -23.1328125 6.578125 C-16.14034612 -0.72743689 -9.65317552 -2.87901726 0 0 Z " fill="#04BE65" transform="translate(187.5625,183.0625)"/>
<path d="M0 0 C13.98062906 8.5958638 22.01175748 23.20877388 26.48046875 38.58984375 C29.68285286 52.19621753 29.78604417 65.65444579 22.4375 78 C19.38629777 82.74631458 15.80913209 85.39500457 10.4375 87 C3.21010728 87.82701509 -2.13921122 85.12222637 -7.96484375 81.06640625 C-21.64290526 70.18566258 -30.33137206 52.20199639 -32.5625 35 C-33.34663321 23.54651325 -32.45622768 12.80069592 -25.09375 3.5078125 C-17.54034363 -3.92998051 -9.33247142 -4.64189013 0 0 Z " fill="#04BE65" transform="translate(327.5625,133)"/>
<path d="M0 0 C10.9746123 3.00565959 18.03446916 15.63014363 23.33911133 24.92480469 C31.08833793 39.07928921 38.68326574 57.01726503 35.41796875 73.34375 C34.04228986 76.92051511 33.4229225 77.74235852 30.16796875 79.59375 C18.24267297 81.29955906 6.94767939 78.31742754 -2.7421875 71.2734375 C-12.31666923 63.57805966 -17.98492872 54.65511164 -20.83203125 42.59375 C-21.91966133 29.70659822 -20.95894227 17.59478586 -12.328125 7.28515625 C-11.83441406 6.72699219 -11.34070313 6.16882813 -10.83203125 5.59375 C-10.04828125 4.60375 -9.26453125 3.61375 -8.45703125 2.59375 C-5.59426317 0.41259337 -3.62173323 -0.27179987 0 0 Z " fill="#1D1E1E" transform="translate(77.83203125,279.40625)"/>
<path d="M0 0 C3.42970067 2.90367296 6.73551712 5.91241028 10 9 C10.71285156 9.66 11.42570312 10.32 12.16015625 11 C30.08263095 28.12822245 40.78241488 53.77864487 41.43572998 78.37083435 C41.83800038 100.398131 38.33591061 119.79735832 27 139 C26.67 138.34 26.34 137.68 26 137 C26.64281496 135.36847441 27.36896358 133.76974389 28.125 132.1875 C38.44628353 107.90212699 39.16682595 81.00410399 30.2890625 56.1328125 C18.90475453 28.46549433 -0.34803431 7.12923404 -28 -5 C-63.64584708 -19.05920002 -94.59121192 -11.16570178 -129.44538498 1.52611542 C-132.83633131 2.75830018 -136.23203375 3.97724848 -139.62719727 5.19775391 C-144.44616914 6.93149399 -149.26322498 8.67039267 -154.07813931 10.41536903 C-162.02860143 13.29614031 -169.99475723 16.13023553 -177.96875 18.9453125 C-181.13285189 20.06817175 -184.29636946 21.19265376 -187.45950317 22.3182373 C-189.41272473 23.01135143 -191.36717741 23.70100802 -193.32296753 24.38684082 C-221.50375496 34.28472948 -246.63706904 49.20594388 -260.5625 76.8125 C-261.036875 77.864375 -261.51125 78.91625 -262 80 C-263 77 -263 77 -261.515625 73.69921875 C-260.77537849 72.35363916 -260.01897568 71.01687043 -259.25 69.6875 C-258.63862183 68.62269409 -258.63862183 68.62269409 -258.01489258 67.53637695 C-249.164606 52.51948224 -237.84491517 40.40382182 -223.4375 30.625 C-222.8609668 30.2321582 -222.28443359 29.83931641 -221.69042969 29.43457031 C-210.57014405 22.18382265 -197.74791021 18.29354994 -185.3125 13.9375 C-182.34455736 12.89222414 -179.37721212 11.84526553 -176.40994263 10.79808044 C-174.30390935 10.05484052 -172.19768367 9.31214563 -170.09127808 8.56996155 C-162.4076423 5.85983196 -154.73600661 3.11739815 -147.06979942 0.35837364 C-145.18538479 -0.31966805 -143.3007223 -0.99701599 -141.41596985 -1.67411804 C-134.03138807 -4.32679869 -134.03138807 -4.32679869 -126.64981079 -6.98782349 C-83.39308079 -22.60559315 -39.07224209 -31.36411269 0 0 Z " fill="#292A2A" transform="translate(378,121)"/>
<path d="M0 0 C13.73783686 8.39672488 23.28510141 16.52269296 28.39453125 32.4140625 C29.04738598 36.28064726 28.94756252 39.72199914 28.75610352 43.62060547 C28.03299629 51.56030102 28.03299629 51.56030102 30.9296875 58.59375 C33.54012362 60.33933038 36.15989482 61.66730401 39 63 C47.88740765 69.44060803 55.58226555 79.14165414 58 90 C59.23381659 100.71017598 58.83118536 110.85960028 51.953125 119.6015625 C50.02903334 121.80539798 48.06320493 123.92677951 46 126 C45.01 125.505 45.01 125.505 44 125 C44.53109375 124.47792969 45.0621875 123.95585937 45.609375 123.41796875 C52.5609241 116.17465755 56.07720658 109.18311756 56.5 99.0625 C55.98911693 87.06448857 51.1098368 77.72076985 43 69 C35.83802801 62.42349679 35.83802801 62.42349679 27 59 C26.74347656 59.60585937 26.48695313 60.21171875 26.22265625 60.8359375 C22.954311 67.98888166 18.6393157 73.523805 13 79 C12.67 79 12.34 79 12 79 C12.10828125 78.11828125 12.10828125 78.11828125 12.21875 77.21875 C14.84692467 51.81306156 13.34189387 26.67726351 0.91796875 3.85546875 C0 2 0 2 0 0 Z " fill="#263830" transform="translate(415,149)"/>
<path d="M0 0 C2.21591717 6.64775152 1.19150734 14.42547799 -1 21 C-4.50233008 27.33029846 -9.08444934 31.69481645 -16 34 C-23.56995509 34.63169256 -30.869051 35.016231 -37 30 C-40.3015252 26.46678882 -43.31923605 22.90917099 -44 18 C-43.75512695 15.99560547 -43.75512695 15.99560547 -43 14 C-41.35205078 12.90673828 -41.35205078 12.90673828 -39.1953125 12.0703125 C-38.39287109 11.75255859 -37.59042969 11.43480469 -36.76367188 11.10742188 C-35.4575293 10.62112305 -35.4575293 10.62112305 -34.125 10.125 C-32.79178711 9.61163086 -32.79178711 9.61163086 -31.43164062 9.08789062 C-25.1791231 6.71837622 -18.86668118 4.54167295 -12.5 2.5 C-11.70609863 2.24492676 -10.91219727 1.98985352 -10.09423828 1.72705078 C-6.54925738 0.63102175 -3.74185684 0 0 0 Z " fill="#0ABE67" transform="translate(301,234)"/>
<path d="M0 0 C2.25 1.9375 2.25 1.9375 4 4 C6.13309192 5.23512079 6.13309192 5.23512079 8 6 C7.67 6.33 7.34 6.66 7 7 C6.73031727 8.74707505 6.48424839 10.49782202 6.25 12.25 C5.10288519 18.60009984 3.0401183 20.88467293 -2.234375 24.5546875 C-9.57438941 29.31885834 -17.13743782 32.04265437 -26 31 C-28.36497439 29.13291495 -29.66030715 27.67938569 -31 25 C-31.16796875 22.9765625 -31.16796875 22.9765625 -31.1875 20.625 C-31.20167969 19.85414063 -31.21585937 19.08328125 -31.23046875 18.2890625 C-30.97105568 15.71251912 -30.39340154 14.17574327 -29 12 C-28.01 11.34 -27.02 10.68 -26 10 C-25.484375 9.236875 -24.96875 8.47375 -24.4375 7.6875 C-18.30707618 0.92831477 -8.86795398 -2.4185329 0 0 Z " fill="#0ABF68" transform="translate(448,272)"/>
<path d="M0 0 C1.10311793 3.30935379 0.84367627 3.80648715 0 7 C-1.57497242 26.10622276 4.91179714 45.50283521 17.29296875 60.17578125 C22.85506489 66.11971465 29.04714812 71.3215851 37.43359375 72.27734375 C41.14692221 72.33222053 44.41572556 71.99070956 48 71 C46.26191187 75.1279593 44.33742415 76.48483146 40.33203125 78.2890625 C34.89151986 79.94764386 30.27897656 79.07750775 25.19921875 76.67578125 C9.06494474 67.10233236 0.73641289 50.56335079 -4 33 C-6.24529074 21.98943966 -6.00923144 11.17940205 -1 1 C-0.67 0.67 -0.34 0.34 0 0 Z " fill="#252626" transform="translate(300,141)"/>
<path d="M0 0 C1.35361167 2.70722334 0.61825322 4.0581105 0 7 C-1.51673994 26.02141069 4.84277621 45.44053977 17.15234375 60.10546875 C23.1947802 66.30120168 30.15682496 72.01076701 39.125 72.3125 C42.59156665 72.03293817 44.91979112 71.54010444 48 70 C46.46641111 73.90368082 44.66963411 75.9450049 41 78 C33.86726926 79.13333477 28.08405588 78.40741154 22.01171875 74.4609375 C21.34785156 73.97882813 20.68398437 73.49671875 20 73 C19.40832031 72.60039062 18.81664062 72.20078125 18.20703125 71.7890625 C5.24264277 61.99902086 -2.54543264 43.55296435 -5 28 C-5.88483093 19.03958542 -5.78832126 10.30516585 -2 2 C-1.34 1.34 -0.68 0.68 0 0 Z " fill="#242525" transform="translate(163,193)"/>
<path d="M0 0 C3.60351562 6.80664062 7.20703125 13.61328125 10.81054688 20.41992188 C11.20146515 21.15829788 11.59238342 21.89667389 11.99514771 22.65742493 C12.79119121 24.16111376 13.5871499 25.6648475 14.38302612 27.16862488 C16.40262506 30.98431842 18.42370689 34.79921269 20.44775391 38.61254883 C28.23197791 53.28343878 28.23197791 53.28343878 31.5 59.8125 C31.83257812 60.46541016 32.16515625 61.11832031 32.5078125 61.79101562 C35.86427754 68.48347946 35.86427754 68.48347946 36 71 C34.50585937 72.60864258 34.50585937 72.60864258 33 74 C32.71914551 73.4330542 32.43829102 72.8661084 32.14892578 72.28198242 C26.85291224 61.60509021 21.51121836 50.95985594 15.92797852 40.42993164 C11.68949354 32.43580588 7.52920849 24.4015226 3.37744141 16.36206055 C2.8519873 15.34797119 2.3265332 14.33388184 1.78515625 13.2890625 C1.31988525 12.38881348 0.85461426 11.48856445 0.37524414 10.56103516 C-0.58445205 8.77385017 -1.60670126 7.01947449 -2.67407227 5.29443359 C-4 3 -4 3 -4 1 C-2 0 -2 0 0 0 Z " fill="#252626" transform="translate(54,154)"/>
<path d="M0 0 C2.92137294 2.68450487 3.89265806 4.60641287 4.9375 8.4375 C5.00980232 12.55873235 4.23373352 14.56962352 2 18 C-1.7205836 20.48038907 -3.59796571 20.46337203 -8 20 C-10.36497439 18.13291495 -11.66030715 16.67938569 -13 14 C-13.16796875 11.9765625 -13.16796875 11.9765625 -13.1875 9.625 C-13.20167969 8.85414063 -13.21585937 8.08328125 -13.23046875 7.2890625 C-12.97331551 4.73496425 -12.36329926 3.16524 -11 1 C-7.12112734 -1.26267572 -4.25529977 -1.3580744 0 0 Z " fill="#1F2020" transform="translate(430,283)"/>
<path d="M0 0 C0.391875 0.53625 0.78375 1.0725 1.1875 1.625 C1.785625 2.40875 2.38375 3.1925 3 4 C4.0828125 5.485 4.0828125 5.485 5.1875 7 C8.87256744 11.30835778 13.02500732 13.56935113 18.64453125 14.3828125 C27.54598169 14.75629993 34.39890015 11.96228374 41 6 C39.62798559 11.18316555 36.2962988 14.06405232 32 17 C25.74745506 20.08444943 18.28601471 20.09577722 11.5859375 18.3828125 C6.25391242 16.05648495 2.8292991 12.01246068 0 7 C-1.07265018 3.93859841 -1.06875504 3.20626511 0 0 Z " fill="#2A2B2B" transform="translate(258,249)"/>
<path d="M0 0 C0.66 0.33 1.32 0.66 2 1 C-0.31 3.31 -2.62 5.62 -5 8 C-4.67 8.66 -4.34 9.32 -4 10 C-4.47308594 10.38929688 -4.94617188 10.77859375 -5.43359375 11.1796875 C-16.30062609 20.37323923 -25.03453287 31.01633624 -31 44 C-32 41 -32 41 -30.515625 37.69921875 C-29.77537849 36.35363916 -29.01897568 35.01687043 -28.25 33.6875 C-27.63862183 32.62269409 -27.63862183 32.62269409 -27.01489258 31.53637695 C-19.75936928 19.22542763 -10.82736365 9.25900207 0 0 Z " fill="#3A3B3B" transform="translate(147,157)"/>
<path d="M0 0 C2.12090389 3.65896397 2.07798175 5.92889095 1.046875 10.07421875 C-1.31024995 16.66185528 -4.74074696 22.82257854 -8 29 C-8.33 28.34 -8.66 27.68 -9 27 C-8.34403004 25.24176088 -7.59701571 23.51726875 -6.8125 21.8125 C-3.72602579 14.7170579 -1.83210325 7.49217643 0 0 Z " fill="#5A5B5B" transform="translate(413,231)"/>
<path d="M0 0 C0.66 0 1.32 0 2 0 C1.835 0.495 1.67 0.99 1.5 1.5 C0.64195218 5.79023912 0.38990996 10.11888905 1.75 14.3125 C3.24897273 16.33611319 4.91288943 17.60859295 7 19 C3.47221403 18.76481427 1.59190181 18.63136193 -0.875 16 C-2.62972515 11.32073294 -3.05733575 6.36178828 -0.98046875 1.72265625 C-0.65691406 1.15417969 -0.33335937 0.58570313 0 0 Z " fill="#565656" transform="translate(419,284)"/>
<path d="M0 0 C0.66 0.99 1.32 1.98 2 3 C1.20335938 4.051875 1.20335938 4.051875 0.390625 5.125 C-3.6681622 10.57621784 -7.19540355 15.80651616 -10 22 C-11 19 -11 19 -10.3190918 17.23828125 C-9.94953369 16.60277344 -9.57997559 15.96726563 -9.19921875 15.3125 C-8.79896484 14.61382812 -8.39871094 13.91515625 -7.98632812 13.1953125 C-7.55771484 12.47085938 -7.12910156 11.74640625 -6.6875 11 C-6.06198242 9.91332031 -6.06198242 9.91332031 -5.42382812 8.8046875 C-3.68972405 5.80665111 -1.92217187 2.88325781 0 0 Z " fill="#606060" transform="translate(126,179)"/>
<path d="M0 0 C0.33 0.66 0.66 1.32 1 2 C-1.062239 6.43522633 -3.73509285 10.47264762 -8 13 C-8.66 12.67 -9.32 12.34 -10 12 C-6.7 8.04 -3.4 4.08 0 0 Z " fill="#3D996D" transform="translate(407,271)"/>
<path d="M0 0 C1.31225809 3.93677426 0.3393954 5.7794262 -0.9375 9.6875 C-1.31777344 10.86699219 -1.69804688 12.04648438 -2.08984375 13.26171875 C-2.39019531 14.16535156 -2.69054687 15.06898438 -3 16 C-3.99 15.01 -4.98 14.02 -6 13 C-4.31326082 8.50202887 -2.18326108 4.27113698 0 0 Z " fill="#5DB58B" transform="translate(104,199)"/>
<path d="M0 0 C0.99 0 1.98 0 3 0 C1.50902342 3.7952131 -0.75700849 5.61042731 -4 8 C-3.40353695 4.65980694 -2.31705841 2.49529367 0 0 Z " fill="#333333" transform="translate(131,173)"/>
<path d="M0 0 C0 3 0 3 -2.5 5.6875 C-3.325 6.450625 -4.15 7.21375 -5 8 C-5.33 7.01 -5.66 6.02 -6 5 C-4.02 3.35 -2.04 1.7 0 0 Z " fill="#333434" transform="translate(298,255)"/>
</svg>
